<svg
  width="100"
  height="100"
  viewBox="0 0 100 100"
  xmlns="http://www.w3.org/2000/svg"
  role="img"
  aria-labelledby="title desc"
>
  <title id="title">User Settings</title>
  <desc id="desc">Icône représentant un utilisateur avec un engrenage de réglages</desc>

  <!-- Cercle de fond -->
  <circle cx="50" cy="50" r="50" fill="#E3F2FD"/>

  <!-- Silhouette de l'utilisateur -->
  <g transform="translate(30, 20)">
    <!-- Tête -->
    <circle cx="20" cy="20" r="12" fill="#FFFFFF" stroke="#64B5F6" stroke-width="3"/>
    <!-- Buste -->
    <path
      d="M8,42 C8,34 32,34 32,42 L32,52 C32,60 8,60 8,52 Z"
      fill="#FFFFFF"
      stroke="#64B5F6"
      stroke-width="3"
    />
  </g>

  <!-- Engrenage de réglages -->
  <g transform="translate(60, 60) scale(0.6)" fill="#64B5F6" stroke="#1976D2" stroke-width="2">
    <circle cx="20" cy="20" r="8" fill="#BBDEFB"/>
    <path d="M20,8 L20,0 M20,40 L20,32 M8,20 L0,20 M40,20 L32,20 M7,7 L2,2 M33,33 L38,38 M7,33 L2,38 M33,7 L38,2" stroke-linecap="round"/>
  </g>
</svg>
