<svg width="871" height="768" viewBox="0 0 871 768" fill="none" xmlns="http://www.w3.org/2000/svg">
<g clip-path="url(#clip0_1640_54232)">
<mask id="mask0_1640_54232" style="mask-type:luminance" maskUnits="userSpaceOnUse" x="0" y="0" width="871" height="768">
<path d="M871 0H0V768H871V0Z" fill="white"/>
</mask>
<g mask="url(#mask0_1640_54232)">
<path fill-rule="evenodd" clip-rule="evenodd" d="M34.8883 745.716C170.609 709.601 553.345 718.931 850.076 745.716C1047.9 763.572 861.678 782.621 291.419 802.863C29.9183 788.842 -55.592 769.792 34.8883 745.716Z" fill="#C7DEFF"/>
<path fill-rule="evenodd" clip-rule="evenodd" d="M192.202 417.105H103V376.887L192.202 271H234.88V379.168H257V417.105H234.88V450H192.202V417.105ZM192 379V324L145 379H192Z" fill="#0073FF"/>
<path fill-rule="evenodd" clip-rule="evenodd" d="M321.27 424.345C326.256 433.589 325.663 457.035 319.22 458.687C316.651 459.346 311.177 457.732 305.607 454.392L309.103 479H288.456L295.564 446.045C291.6 441.416 288.917 435.744 289.365 429.387C290.657 411.073 316.285 415.102 321.27 424.345Z" fill="#FFB8B8"/>
<path fill-rule="evenodd" clip-rule="evenodd" d="M313.115 414.278C310.294 413.422 306.198 413.132 304.475 413.328C305.455 410.993 305.844 408.39 305.527 405.856C305.219 403.394 304.113 401.298 303.09 399.101C302.619 398.089 302.084 397.082 301.288 396.307C300.476 395.518 299.449 394.997 298.372 394.749C297.269 394.494 296.117 394.516 295.013 394.746C294.524 394.849 294.086 395.071 293.607 395.194C293.117 395.321 292.879 395.015 292.523 394.708C291.665 393.969 290.407 393.604 289.321 393.473C288.103 393.327 286.84 393.509 285.678 393.908C284.548 394.295 283.462 394.925 282.644 395.842C282.28 396.25 281.95 396.715 281.735 397.228C281.647 397.438 281.633 397.563 281.421 397.64C281.226 397.712 280.998 397.714 280.796 397.782C278.847 398.438 277.18 399.937 276.273 401.86C275.743 402.983 275.492 404.958 275.561 407.173C275.63 409.388 277.64 415.166 279.52 417.274C281.199 419.155 283.665 420.397 286.046 420.94C284.466 422.737 283.414 424.982 282.636 427.266C281.791 429.746 281.268 432.323 281.075 434.949C280.892 437.444 280.875 440.082 281.463 442.524C282.013 444.807 283.189 446.681 285.153 447.869C286.052 448.413 287.02 448.822 287.994 449.196C288.953 449.564 289.915 449.922 290.92 450.129C292.822 450.52 295.013 450.453 296.478 448.947C297.006 448.404 297.587 447.722 297.972 447.059C298.11 446.82 298.194 446.665 298.026 446.431C297.824 446.152 297.498 445.938 297.239 445.72C295.762 444.475 294.848 442.812 294.618 440.837C294.384 438.832 294.925 436.245 296.884 435.37C299.303 434.29 301.966 435.53 304.116 436.685C305.029 433.478 306.905 430.59 309.846 429.119C313.099 427.491 316.832 427.301 320.176 425.905C321.047 425.541 321.935 425.128 322.576 424.386C322.844 424.076 323.158 423.674 323.266 423.264C323.406 422.726 323.057 422.275 322.787 421.855C321.358 419.63 315.936 415.134 313.115 414.278Z" fill="#0A293C"/>
<path fill-rule="evenodd" clip-rule="evenodd" d="M280.653 551L312.89 656.008L328.507 745.311H340.751L324.25 551H280.653Z" fill="#F2A3A3"/>
<path fill-rule="evenodd" clip-rule="evenodd" d="M269.121 551C271.31 608.655 268.733 638.395 268.243 643.633C267.753 648.871 261.043 682.836 245.156 747.069L258.204 742.604C283.311 683.693 291.866 653.076 294.746 645.34C297.625 637.604 305.273 606.158 317.69 551H269.121Z" fill="#FFB8B8"/>
<path fill-rule="evenodd" clip-rule="evenodd" d="M245.143 742.84C244.259 745.239 243.817 747.046 243.817 748.262C243.817 749.801 244.074 752.047 244.589 755H292.906C294.162 750.864 293.437 748.631 290.732 748.301C288.027 747.971 285.779 747.674 283.99 747.408L261.665 737.492C261.161 737.267 260.57 737.495 260.345 738C260.342 738.007 260.339 738.015 260.335 738.023L258.948 741.376C256.444 742.54 254.409 743.122 252.843 743.122C251.621 743.122 249.951 742.65 247.834 741.705C246.826 741.255 245.643 741.707 245.193 742.716C245.175 742.757 245.158 742.798 245.143 742.84Z" fill="white"/>
<path fill-rule="evenodd" clip-rule="evenodd" d="M325.669 742.84C324.785 745.239 324.343 747.046 324.343 748.262C324.343 749.801 324.601 752.047 325.115 755H373.433C374.689 750.864 373.964 748.631 371.259 748.301C368.553 747.971 366.306 747.674 364.517 747.408L342.192 737.492C341.687 737.267 341.096 737.495 340.872 738C340.869 738.007 340.865 738.015 340.862 738.023L339.475 741.376C336.97 742.54 334.935 743.122 333.37 743.122C332.148 743.122 330.478 742.65 328.361 741.705C327.353 741.255 326.17 741.707 325.72 742.716C325.701 742.757 325.685 742.798 325.669 742.84Z" fill="white"/>
<path fill-rule="evenodd" clip-rule="evenodd" d="M276.37 551L290.077 604.501H331.942L325.7 551H276.37Z" fill="#69A1AC"/>
<path fill-rule="evenodd" clip-rule="evenodd" d="M268.66 551C264.15 564.47 263.293 582.303 266.09 604.501H308.812L320.56 551H268.66Z" fill="#89C5CC"/>
<path fill-rule="evenodd" clip-rule="evenodd" d="M353.172 447.614L384.171 434.487C389.624 429.077 394.881 424.996 399.942 422.245C401.453 421.792 404.029 421.715 401.252 425.775C398.474 429.836 395.732 434.24 396.82 435.721C397.907 437.201 401.098 435.69 402.337 438.083C403.163 439.679 397.79 441.409 386.216 443.275L362.942 460.922L353.172 447.614Z" fill="#D4A181"/>
<path fill-rule="evenodd" clip-rule="evenodd" d="M282.455 468.946C312.703 465.914 340.049 454.251 372.107 433.971L378.83 450.026C353.248 477.204 338.896 491.17 312.387 489.386C305.734 488.938 286.844 482.301 276.689 479.294L282.455 468.946Z" fill="#FFB300"/>
<path d="M429.302 491.47C483.417 491.47 527.286 447.489 527.286 393.235C527.286 338.981 483.417 295 429.302 295C375.186 295 331.317 338.981 331.317 393.235C331.317 447.489 375.186 491.47 429.302 491.47Z" fill="#0073FF"/>
<path fill-rule="evenodd" clip-rule="evenodd" d="M358.779 464.115L390.984 454.31C392.908 452.765 395.532 447.104 397.217 446.521C399.186 445.84 400.654 448.592 402.066 448.12C404.953 447.155 405.525 444.797 407.95 443.792C409.5 443.5 411.407 443.551 408.884 447.438C406.361 451.325 406.361 452.476 404.56 454.31C402.759 456.143 398.393 459.906 392.1 463.257L367.107 478.361L358.779 464.115Z" fill="#FFB8B8"/>
<path fill-rule="evenodd" clip-rule="evenodd" d="M267.712 558.714H333.621C318.691 513.066 311.065 481.735 310.741 464.723C310.725 463.856 309.127 462.327 308.42 462.528C303.251 463.991 297.719 463.444 291.826 460.886C276.201 486.08 270.798 517.098 267.712 558.714Z" fill="#F2F2F2"/>
<path fill-rule="evenodd" clip-rule="evenodd" d="M382.344 453.162L385.834 470.646C359.116 487.873 332.063 501.218 308.357 499.322C318.652 543.59 318.178 579.83 295.451 579.83H260.309C254.728 542.224 269.397 490.083 282.996 463.783C283.515 462.779 284.621 460.885 287.225 460.885H297.437C297.441 460.899 297.446 460.913 297.45 460.926C316.341 461.081 346.993 464.54 382.344 453.162Z" fill="#FFCC50"/>
<path fill-rule="evenodd" clip-rule="evenodd" d="M819.161 715.458L734 695.876L742.835 657.763L851.256 577L892 586.369L868.239 688.876L889.357 693.732L881.024 729.683L859.906 724.827L852.68 756L811.935 746.631L819.161 715.458ZM826.949 678L782 667.662L839 626L826.949 678Z" fill="#0073FF"/>
<path fill-rule="evenodd" clip-rule="evenodd" d="M673.205 472.275C668.007 482.038 668.624 506.801 675.343 508.546C678.022 509.242 683.73 507.537 689.539 504.009L685.892 530H707.422L700.011 495.193C704.144 490.304 706.941 484.313 706.474 477.6C705.127 458.257 678.403 462.513 673.205 472.275Z" fill="#A0616A"/>
<path fill-rule="evenodd" clip-rule="evenodd" d="M701.664 499.547C704.366 487.435 712.064 479.178 710.889 473.764C710.105 470.155 708.016 467.911 704.622 467.031C702.866 459.876 697.205 456.832 687.637 457.901C673.285 459.503 664.525 465.509 668.308 478.723C671.785 478.723 675.983 477.456 681.788 479.627C683.63 480.316 684.947 482.452 685.74 486.035H688.363C690.909 481.783 693.419 480.22 695.894 481.347C698.369 482.474 698.931 485.212 697.581 489.561L698.874 499.547H701.664Z" fill="#0A293C"/>
<path fill-rule="evenodd" clip-rule="evenodd" d="M746.502 642.35H677.572L668.54 754.35H771.148L746.502 642.35Z" fill="#CFCECE"/>
<path fill-rule="evenodd" clip-rule="evenodd" d="M746.502 642.35H725.302L712.614 754.35H771.148L746.502 642.35Z" fill="black" fill-opacity="0.1"/>
<path fill-rule="evenodd" clip-rule="evenodd" d="M598.584 623.207L598.326 623.057C590.937 618.884 578.869 624.551 578.877 630.851C578.903 649.922 596.168 739.805 597.069 745.487C597.971 751.169 607.627 752.669 608.189 745.505C609.084 734.106 610.747 694.644 609.083 676.378C608.397 668.838 607.657 661.657 606.929 655.25C615.988 671.742 629.999 695.357 648.963 726.092L659.257 721.351C651.173 694.502 644.545 675.547 639.371 664.487C630.513 645.549 622.207 629.331 618.712 623.618C613.213 614.633 603.642 617.768 598.584 623.207Z" fill="#A0616A"/>
<path fill-rule="evenodd" clip-rule="evenodd" d="M658.521 706.441L623.189 622.064C614.724 608.339 590.993 624.858 593.879 632.819C600.432 650.892 633.761 709.405 635.713 714.79L658.521 706.441Z" fill="#185F8B"/>
<path fill-rule="evenodd" clip-rule="evenodd" d="M660.683 716.281C662.793 718.043 664.172 719.487 664.822 720.612C665.635 722.019 666.588 724.207 667.681 727.175L624.02 752.383C620.702 749.257 620.179 746.837 622.449 745.125C624.719 743.412 626.593 741.967 628.07 740.791L643.031 720.047C643.354 719.599 643.979 719.497 644.427 719.821C644.436 719.827 644.445 719.834 644.454 719.841L647.514 722.211C650.392 721.969 652.538 721.439 653.953 720.623C655.069 719.978 656.342 718.655 657.774 716.653C658.417 715.754 659.666 715.546 660.565 716.189C660.605 716.218 660.645 716.249 660.683 716.281Z" fill="white"/>
<path fill-rule="evenodd" clip-rule="evenodd" d="M610.532 741.152C611.477 743.733 611.95 745.673 611.95 746.972C611.95 748.597 611.682 750.969 611.145 754.086H560.729C559.419 749.72 560.175 747.363 562.998 747.014C565.821 746.666 568.165 746.352 570.032 746.071L593.361 735.587C593.865 735.361 594.457 735.586 594.683 736.089C594.688 736.1 594.692 736.11 594.697 736.121L596.162 739.703C598.775 740.932 600.898 741.547 602.532 741.547C603.82 741.547 605.585 741.038 607.827 740.019C608.832 739.563 610.018 740.007 610.475 741.013C610.495 741.059 610.514 741.105 610.532 741.152Z" fill="white"/>
<path fill-rule="evenodd" clip-rule="evenodd" d="M576.401 637.334C576.401 661.273 587.679 717.114 587.686 722.386L611.95 722.404C608.399 672.578 607.139 647.396 608.172 646.86C609.722 646.054 671.682 653.096 690.265 653.096C717.062 653.096 728.147 636.061 729.047 604.504H675.963C665.155 605.67 608.778 617.133 587.841 621.074C578.877 622.761 576.401 630.739 576.401 637.334Z" fill="#1B6D9F"/>
<path fill-rule="evenodd" clip-rule="evenodd" d="M596.099 551.83C592.223 551.024 582.763 543.916 581.133 545.359C578.722 547.494 580.872 554.05 583.405 557.312C588.14 563.407 592.061 565.491 601.751 568.221C606.817 569.648 612.294 572.509 618.183 576.803L618.96 562.975L605.321 555.406C603.408 548.049 601.12 544.348 598.459 544.301C596.414 543.34 599.975 552.636 596.099 551.83ZM619.573 520.32L619.879 520.871C622.27 525.2 624.459 529.704 623.235 531.031C621.96 532.415 618.778 530.482 617.256 532.781C616.241 534.313 621.677 536.734 633.562 540.043L656.122 560.913L667.588 548.48L636.539 531.299C631.376 525.104 626.289 520.294 621.278 516.866C619.746 516.22 617.069 515.829 619.573 520.32Z" fill="#A0616A"/>
<path fill-rule="evenodd" clip-rule="evenodd" d="M682.709 544.653C671.834 544.536 657.332 542.216 641.858 532.292L635.781 545.984C646.454 556.686 661.462 565.479 674.585 565.106C684.927 564.813 690.212 552.175 682.709 544.653Z" fill="#FF7022"/>
<path fill-rule="evenodd" clip-rule="evenodd" d="M681.985 509.89C680.616 527.665 673.723 547.255 668.066 566.609C656.521 569.519 637.16 566.088 609.982 556.318C603.241 570.407 600.125 580.452 600.634 586.452C623.951 598.757 643.935 604.243 660.398 604.603C659.868 614.469 661.057 623.861 665.052 632.443C673.263 650.082 721.343 633.746 737.51 636.961C747.633 603.745 728.059 590.245 728.043 568.991C728.026 545.716 709.527 509.89 706.805 509.89H681.985Z" fill="#FF9054"/>
</g>
</g>
<defs>
<clipPath id="clip0_1640_54232">
<rect width="871" height="768" fill="white"/>
</clipPath>
</defs>
</svg>
