<svg width="164" height="164" viewBox="0 0 164 164" fill="none" xmlns="http://www.w3.org/2000/svg">
<g clip-path="url(#clip0_1640_54296)">
<mask id="mask0_1640_54296" style="mask-type:luminance" maskUnits="userSpaceOnUse" x="0" y="0" width="164" height="164">
<path d="M164 0H0V164H164V0Z" fill="white"/>
</mask>
<g mask="url(#mask0_1640_54296)">
<mask id="mask1_1640_54296" style="mask-type:alpha" maskUnits="userSpaceOnUse" x="0" y="0" width="164" height="164">
<path d="M82 164C127.287 164 164 127.287 164 82C164 36.7127 127.287 0 82 0C36.7127 0 0 36.7127 0 82C0 127.287 36.7127 164 82 164Z" fill="white"/>
</mask>
<g mask="url(#mask1_1640_54296)">
<path d="M82 164C127.287 164 164 127.287 164 82C164 36.7127 127.287 0 82 0C36.7127 0 0 36.7127 0 82C0 127.287 36.7127 164 82 164Z" fill="white"/>
<path opacity="0.5" d="M151.257 112.661C151.257 112.661 156.067 92.2726 141.203 92.2011C141.203 92.2011 138.735 91.2776 137.179 93.3885C137.179 93.3885 138.24 93.6139 137.52 95.6258C137.271 96.3373 137.105 97.0751 137.025 97.8247C136.919 98.8465 137.149 99.8751 137.68 100.755C137.68 100.755 139.07 106.966 148.124 110.858C148.124 110.858 149.905 112.881 150.444 112.903L149.564 109.171C149.564 109.171 146.849 109.924 144.925 108.621C144.925 108.621 149.449 109.286 149.454 108.621C149.454 108.484 148.905 106.664 148.905 106.664C148.905 106.664 144.183 107.95 141.269 105.856C141.269 105.856 146.552 107.373 148.701 105.971L147.712 103.267C147.712 103.267 142.764 104.877 139.378 102.618C139.378 102.618 144.958 104.014 147.453 102.695L146.107 100.177C146.107 100.177 141.269 101.651 138.449 99.7542C138.449 99.7542 145.046 100.711 145.76 99.6222C145.76 99.6222 144.386 97.3849 143.732 96.9671C143.732 96.9671 140.236 97.9456 138.697 96.6978C138.697 96.6978 143.177 96.8682 143.281 96.3954C143.281 96.3954 140.714 93.9602 138.757 93.4105C140.581 93.8257 142.265 94.7086 143.644 95.9721C143.624 94.8201 143.269 93.6988 142.622 92.7453C142.622 92.7453 144.622 93.405 144.271 96.5933C144.271 96.5933 146.195 98.5723 146.255 99.023C146.255 99.023 147.052 95.9502 146.541 93.9107C146.541 93.9107 148.19 95.9117 146.634 99.6772L148.042 102.178C148.042 102.178 149.317 98.1655 148.993 96.3185C148.993 96.3185 150.361 98.6163 148.344 102.838L149.361 105.471C149.361 105.471 150.719 102.096 150.807 99.974C150.807 99.974 151.615 102.382 149.619 106.246L150.092 108.082C150.092 108.082 151.038 105.603 151.246 104.866C151.455 104.13 151.67 104.124 151.67 104.124C151.661 105.797 151.187 107.434 150.301 108.852C150.301 108.852 151.021 112.689 151.257 112.661Z" fill="#338AFF"/>
<path opacity="0.5" d="M28 88.9526C28 88.9526 17.411 81.0316 13.6257 89.6118C13.6257 89.6118 12.4703 90.8088 13.2996 92.2417C13.2996 92.2417 13.6951 91.6831 14.6874 92.6095C15.0389 92.9364 15.4278 93.2206 15.8462 93.456C16.4129 93.7716 17.0671 93.8934 17.7093 93.803C17.7093 93.803 21.6507 94.5628 26.1889 90.2918C26.1889 90.2918 27.8092 89.7714 27.9618 89.4661L25.5713 89.0462C25.5713 89.0462 25.3215 90.8053 24.0898 91.5929C24.0898 91.5929 25.613 89.1434 25.2174 88.9664C25.1376 88.9283 23.9441 88.793 23.9441 88.793C23.9441 88.793 23.5 91.8531 21.5571 93.0085C21.5571 93.0085 23.7672 90.3334 23.4931 88.7375L21.6785 88.6403C21.6785 88.6403 21.3697 91.8982 19.2047 93.2999C19.2047 93.2999 21.4148 90.4237 21.2864 88.6472L19.4892 88.793C19.4892 88.793 19.1249 91.9607 17.3173 93.1125C17.3173 93.1125 19.5343 89.532 19.0798 88.852C19.0798 88.852 17.4387 89.0844 17.0328 89.355C17.0328 89.355 16.7171 91.6241 15.6068 92.2001C15.6068 92.2001 16.8385 89.6499 16.5887 89.473C16.5887 89.473 14.5313 90.3439 13.7228 91.3361C14.4222 90.3861 15.3574 89.635 16.436 89.1573C15.7649 88.8783 15.027 88.8012 14.3127 88.9352C14.3127 88.9352 15.1939 87.9429 16.9356 88.9526C16.9356 88.9526 18.5663 88.3385 18.8439 88.4148C18.8439 88.4148 17.2652 87.1762 15.9572 86.9611C15.9572 86.9611 17.5324 86.51 19.3192 88.3489L21.1199 88.165C21.1199 88.165 19.118 86.4302 17.9696 86.1388C17.9696 86.1388 19.6454 85.9271 21.5779 88.1546L23.3543 88.2344C23.3543 88.2344 21.7479 86.5968 20.537 86.0069C20.537 86.0069 22.1295 86.1457 23.8643 88.2725L25.0474 88.4634C25.0474 88.4634 23.8504 87.2907 23.4757 86.9853C23.101 86.68 23.1531 86.5517 23.1531 86.5517C24.1183 86.9791 24.9459 87.6661 25.5436 88.5362C25.5436 88.5362 27.9549 89.0948 28 88.9526Z" fill="#338AFF"/>
<path d="M41.084 125.322L77.22 119.442V153.654L42.8861 151.856L41.084 125.322Z" fill="#338AFF"/>
<path opacity="0.05" d="M41.084 125.322L77.22 119.442V153.654L42.8861 151.856L41.084 125.322Z" fill="black"/>
<path d="M77.22 119.442L120.555 122.685L118.157 152.457L77.22 153.654V119.442Z" fill="#338AFF"/>
<path opacity="0.1" d="M77.22 119.442L120.555 122.685L118.157 152.457L77.22 153.654V119.442Z" fill="black"/>
<path d="M90.5433 109L77.22 119.442L120.555 122.685L127.637 111.999L90.5433 109Z" fill="#338AFF"/>
<path d="M29 113.918L61.5318 109.958L78.22 119.442L42.084 125.322L29 113.918Z" fill="#338AFF"/>
<path d="M85.1417 128.326V175.101L68.2141 173.364L60.8508 172.613L58.6076 172.379L51.249 171.623L41.084 170.581V125.322L77.2153 127.781L85.1417 128.326Z" fill="#338AFF"/>
<path d="M120.555 122.685V168.3L106.988 170.905L100.389 172.172L85.1417 175.1V128.326L120.555 122.685Z" fill="#338AFF"/>
<path opacity="0.05" d="M120.555 122.685V168.3L106.988 170.905L100.389 172.172L85.1417 175.1V128.326L120.555 122.685Z" fill="black"/>
<path d="M28 135.168L41.084 125.322L85.1418 128.326L78.6561 139.251L28 135.168Z" fill="#338AFF"/>
<path opacity="0.1" d="M28 135.168L41.084 125.322L85.1418 128.326L78.6561 139.251L28 135.168Z" fill="white"/>
<path d="M120.555 122.685L85.1417 128.326L96.6677 138.65L134.601 132.286L120.555 122.685Z" fill="#338AFF"/>
<path opacity="0.1" d="M120.555 122.685L85.1417 128.326L96.6677 138.65L134.601 132.286L120.555 122.685Z" fill="white"/>
<path opacity="0.1" d="M106.988 170.905L100.389 172.172V162.425L106.57 160.867L106.988 170.905Z" fill="white"/>
<path d="M49.6487 31.0205C49.6487 31.0205 32.1182 30.0684 34.1665 41.1522C34.1665 41.1522 33.7559 43.1103 35.7258 44C35.7258 44 35.7581 43.1685 37.5249 43.4554C38.1542 43.5508 38.7937 43.5787 39.4302 43.5385C40.2928 43.4867 41.1128 43.1815 41.7646 42.6696C41.7646 42.6696 46.6962 40.8362 48.6153 33.569C48.6153 33.569 50.0362 31.9808 49.9993 31.5734L47.0376 32.7167C47.0376 32.7167 48.0479 34.6416 47.2498 36.2422C47.2498 36.2422 47.1575 32.7874 46.5855 32.8664C46.4701 32.8664 45.0492 33.5357 45.0492 33.5357C45.0492 33.5357 46.7884 36.8866 45.4737 39.327C45.4737 39.327 45.9719 35.1945 44.5049 33.7768L42.4197 34.8744C42.4197 34.8744 44.4541 38.3376 43.0747 41.1646C43.0747 41.1646 43.43 36.8284 41.9814 35.1405L40.0899 36.4667C40.0899 36.4667 42.0045 39.8841 40.8373 42.2289C40.8373 42.2289 40.6851 37.1818 39.6794 36.7993C39.6794 36.7993 38.0278 38.1131 37.7787 38.6535C37.7787 38.6535 39.0842 41.148 38.2723 42.441C38.2723 42.441 37.7741 39.0776 37.3496 39.061C37.3496 39.061 35.7027 41.2893 35.532 42.8027C35.6118 41.3918 36.1001 40.0244 36.9483 38.8365C35.9991 38.9983 35.1234 39.4073 34.4294 40.013C34.4294 40.013 34.6832 38.4373 37.3543 38.3001C37.3543 38.3001 38.7382 36.6081 39.0796 36.5041C39.0796 36.5041 36.4224 36.3046 34.8123 36.949C34.8123 36.949 36.2286 35.4648 39.5686 36.1175L41.414 34.7455C41.414 34.7455 37.9171 34.3298 36.4316 34.7913C36.4316 34.7913 38.1385 33.4775 41.9168 34.4337L43.9467 33.3403C43.9467 33.3403 40.9665 32.7583 39.1903 32.9703C39.1903 32.9703 41.0633 32.0598 44.5418 33.0451L45.995 32.4589C45.995 32.4589 43.8083 32.0723 43.1716 32.0099C42.535 31.9476 42.4981 31.7896 42.4981 31.7896C43.8815 31.5821 45.3016 31.7261 46.5993 32.2053C46.5993 32.2053 49.7133 31.1951 49.6487 31.0205Z" fill="#338AFF"/>
<path d="M139 51.1955C139 51.1955 130.836 37.6726 122.613 45.3682C122.613 45.3682 120.765 46.1517 121.025 48.1065C121.025 48.1065 121.727 47.6694 122.399 49.1334C122.64 49.6539 122.943 50.144 123.302 50.5934C123.785 51.2015 124.458 51.6364 125.218 51.8306C125.218 51.8306 129.273 54.4618 136.336 51.8306C136.336 51.8306 138.387 51.9997 138.697 51.7316L136.231 50.1727C136.231 50.1727 135.139 51.9914 133.391 52.2925C133.391 52.2925 136.235 50.3006 135.878 49.9253C135.803 49.8469 134.534 49.1541 134.534 49.1541C134.534 49.1541 132.613 52.309 129.912 52.6925C129.912 52.6925 133.626 50.7625 134.059 48.8901L132.076 47.9746C132.076 47.9746 130.214 51.4099 127.143 51.9584C127.143 51.9584 130.954 49.8098 131.626 47.8014L129.55 47.1415C129.55 47.1415 127.668 50.4408 125.113 50.8944C125.113 50.8944 129.256 47.9746 129.063 47.0219C129.063 47.0219 127.122 46.527 126.542 46.6425C126.542 46.6425 125.134 48.9891 123.626 49.1169C123.626 49.1169 126.185 46.8817 125.992 46.5683C125.992 46.5683 123.286 46.5889 121.92 47.3106C123.143 46.5864 124.538 46.1883 125.966 46.1559C125.345 45.5428 124.555 45.1214 123.693 44.9434C123.693 44.9434 125.143 44.2547 126.634 46.1559C126.634 46.1559 128.735 46.226 129.017 46.4363C129.017 46.4363 127.828 44.3743 126.466 43.5247C126.466 43.5247 128.433 43.7474 129.571 46.593L131.672 47.2116C131.672 47.2116 130.248 44.3825 129.088 43.5494C129.088 43.5494 131.063 44.0814 132.189 47.4096L134.143 48.3045C134.143 48.3045 133.105 45.7764 132.042 44.5928C132.042 44.5928 133.76 45.4713 134.714 48.5973L135.945 49.3479C135.945 49.3479 135.155 47.5127 134.878 47.0054C134.601 46.4982 134.718 46.3868 134.718 46.3868C135.599 47.2954 136.206 48.4261 136.471 49.6531C136.471 49.6531 138.878 51.3316 139 51.1955Z" fill="#338AFF"/>
<path opacity="0.6" d="M87.9977 75.6535C87.9977 75.6535 88.4633 58.8619 76.1383 61.2286C76.1383 61.2286 73.9312 60.9069 73 62.8196C73 62.8196 73.9312 62.8196 73.6705 64.5164C73.5852 65.1214 73.5758 65.7339 73.6426 66.341C73.7267 67.1645 74.0949 67.9388 74.6902 68.5446C74.6902 68.5446 76.9112 73.1898 85.1108 74.7676C85.1108 74.7676 86.9314 76.0677 87.3877 75.9972L85.9909 73.2119C85.9909 73.2119 83.8723 74.2432 82.0517 73.5424C82.0517 73.5424 85.9164 73.3264 85.8093 72.7888C85.8093 72.6786 85.0084 71.3388 85.0084 71.3388C85.0084 71.3388 81.3114 73.1237 78.5409 71.9514C78.5409 71.9514 83.1971 72.2819 84.7197 70.8319L83.4206 68.8795C83.4206 68.8795 79.6118 70.9421 76.399 69.7257C76.399 69.7257 81.2648 69.9108 83.1087 68.4697L81.5581 66.7068C81.5581 66.7068 77.8006 68.6548 75.1372 67.6235C75.1372 67.6235 80.7806 67.3018 81.1903 66.3278C81.1903 66.3278 79.6631 64.7984 79.0484 64.5649C79.0484 64.5649 76.3199 65.887 74.8299 65.1731C74.8299 65.1731 78.5549 64.5825 78.5782 64.1902C78.5782 64.1902 76.0312 62.6962 74.3131 62.586C75.8974 62.6128 77.4466 63.0322 78.8063 63.8024C78.5942 62.9016 78.1087 62.079 77.4094 61.4357C77.4094 61.4357 79.1835 61.6252 79.4256 64.1682C79.4256 64.1682 81.3672 65.411 81.493 65.7548C81.493 65.7548 81.628 63.2118 80.8504 61.6957C80.8504 61.6957 82.5639 62.9959 81.9213 66.2044L83.5184 67.9408C83.5184 67.9408 83.8816 64.5825 83.2996 63.1854C83.2996 63.1854 84.8268 64.7676 83.8863 68.408L85.176 70.3075C85.176 70.3075 85.7255 67.4384 85.4321 65.7504C85.4321 65.7504 86.5124 67.5133 85.5252 70.8672L86.233 72.2335C86.233 72.2335 86.5915 70.1312 86.6381 69.5186C86.6846 68.906 86.8616 68.8663 86.8616 68.8663C87.1419 70.181 87.0306 71.5436 86.5403 72.802C86.5403 72.802 87.7928 75.7108 87.9977 75.6535Z" fill="#338AFF"/>
</g>
</g>
</g>
<defs>
<clipPath id="clip0_1640_54296">
<rect width="164" height="164" fill="white"/>
</clipPath>
</defs>
</svg>
