<svg width="244" height="244" viewBox="0 0 244 244" fill="none" xmlns="http://www.w3.org/2000/svg">
<g clip-path="url(#clip0_1640_54450)">
<mask id="mask0_1640_54450" style="mask-type:luminance" maskUnits="userSpaceOnUse" x="0" y="0" width="244" height="244">
<path d="M244 0H0V244H244V0Z" fill="white"/>
</mask>
<g mask="url(#mask0_1640_54450)">
<path d="M122 244C189.379 244 244 189.379 244 122C244 54.6213 189.379 0 122 0C54.6213 0 0 54.6213 0 122C0 189.379 54.6213 244 122 244Z" fill="#C7DEFF"/>
<path d="M68.2178 189.794L79.4735 50.6693C79.6517 48.4674 81.5811 46.8268 83.783 47.0049L83.7871 47.0053L183.791 55.1994C185.991 55.3797 187.63 57.3083 187.452 59.5086L176.196 198.635C176.018 200.837 174.088 202.478 171.886 202.299C171.886 202.299 171.884 202.299 171.882 202.299L71.8781 194.103C69.6779 193.922 68.0398 191.994 68.2178 189.794Z" fill="#0073FF"/>
<path d="M165.27 42H62C60.3431 42 59 43.3431 59 45V188.583C59 190.239 60.3431 191.583 62 191.583H165.27C166.926 191.583 168.27 190.239 168.27 188.583V45C168.27 43.3431 166.926 42 165.27 42Z" fill="white"/>
<path fill-rule="evenodd" clip-rule="evenodd" d="M134 103.664C134 107.344 131.016 110.328 127.336 110.328C123.656 110.328 120.672 107.344 120.672 103.664C120.672 99.9836 123.656 97 127.336 97C131.016 97 134 99.9836 134 103.664ZM107.328 130.336C107.328 134.016 104.344 137 100.664 137C96.9836 137 94 134.016 94 130.336C94 126.656 96.9836 123.672 100.664 123.672C104.344 123.672 107.328 126.656 107.328 130.336ZM120.656 97H107.328C99.9625 97 94 102.963 94 110.328C94 117.694 99.9625 123.656 107.328 123.656V110.328H120.656V97ZM120.672 123.656V110.328C128.022 110.328 134 116.306 133.984 123.656C133.984 131.021 128.022 136.984 120.656 136.984H107.328V123.656H120.672Z" fill="#0073FF"/>
</g>
</g>
<defs>
<clipPath id="clip0_1640_54450">
<rect width="244" height="244" fill="white"/>
</clipPath>
</defs>
</svg>
