<svg width="244" height="244" viewBox="0 0 244 244" fill="none" xmlns="http://www.w3.org/2000/svg">
<g clip-path="url(#clip0_1640_54438)">
<mask id="mask0_1640_54438" style="mask-type:luminance" maskUnits="userSpaceOnUse" x="0" y="0" width="244" height="244">
<path d="M244 0H0V244H244V0Z" fill="white"/>
</mask>
<g mask="url(#mask0_1640_54438)">
<path d="M122 244C189.379 244 244 189.379 244 122C244 54.6213 189.379 0 122 0C54.6213 0 0 54.6213 0 122C0 189.379 54.6213 244 122 244Z" fill="#C7DEFF"/>
<path d="M68.2178 189.794L79.4735 50.6693C79.6517 48.4674 81.5811 46.8268 83.783 47.0049L83.7871 47.0053L183.791 55.1994C185.991 55.3797 187.63 57.3083 187.452 59.5086L176.196 198.635C176.018 200.837 174.088 202.478 171.886 202.299C171.886 202.299 171.884 202.299 171.882 202.299L71.8781 194.103C69.6779 193.922 68.0398 191.994 68.2178 189.794Z" fill="#0073FF"/>
<path d="M165.27 42H62C60.3431 42 59 43.3431 59 45V188.583C59 190.239 60.3431 191.583 62 191.583H165.27C166.926 191.583 168.27 190.239 168.27 188.583V45C168.27 43.3431 166.926 42 165.27 42Z" fill="white"/>
<path d="M110.695 126.285V141.44C110.695 141.681 110.832 141.895 111.054 141.994C111.14 142.036 111.226 142.051 111.319 142.051C111.463 142.051 111.599 142.001 111.714 141.909L117.089 137.485C117.233 137.37 117.312 137.193 117.312 137.016V126.285L134.213 106.698C134.37 106.513 134.407 106.257 134.306 106.044C134.206 105.825 133.984 105.689 133.74 105.689H94.2529C94.0092 105.689 93.7942 105.831 93.6938 106.044C93.5935 106.265 93.6293 106.521 93.787 106.698L110.695 126.285Z" fill="#0073FF"/>
<path d="M102.595 92.9748L99.3547 91.3241C98.9968 91.1417 98.5589 91.284 98.3766 91.6419L96.7258 94.8817C96.5435 95.2395 96.6857 95.6775 97.0436 95.8598L100.283 97.5106C100.641 97.6929 101.079 97.5506 101.262 97.1928L102.912 93.9529C103.095 93.5951 102.952 93.1572 102.595 92.9748Z" fill="#0073FF"/>
<path d="M116.313 95.6068L112.682 95.4165C112.28 95.3955 111.938 95.7036 111.917 96.1047L111.727 99.7358C111.706 100.137 112.014 100.479 112.415 100.5L116.046 100.69C116.447 100.711 116.789 100.403 116.81 100.002L117.001 96.3711C117.022 95.97 116.713 95.6279 116.313 95.6068Z" fill="#0073FF"/>
<path d="M131.714 89.1913L128.083 89.001C127.681 88.98 127.34 89.2881 127.318 89.6892L127.128 93.3204C127.107 93.7215 127.415 94.0636 127.817 94.0846L131.448 94.2749C131.848 94.296 132.191 93.9879 132.212 93.5868L132.402 89.9556C132.423 89.5546 132.115 89.2123 131.714 89.1913Z" fill="#0073FF"/>
</g>
</g>
<defs>
<clipPath id="clip0_1640_54438">
<rect width="244" height="244" fill="white"/>
</clipPath>
</defs>
</svg>
