<svg width="274" height="197" viewBox="0 0 274 197" fill="none" xmlns="http://www.w3.org/2000/svg">
<g clip-path="url(#clip0_1640_56655)">
<mask id="mask0_1640_56655" style="mask-type:luminance" maskUnits="userSpaceOnUse" x="0" y="0" width="274" height="197">
<path d="M274 0H0V197H274V0Z" fill="white"/>
</mask>
<g mask="url(#mask0_1640_56655)">
<path d="M138 192C191.572 192 235 149.019 235 96C235 42.9807 191.572 0 138 0C84.4284 0 41 42.9807 41 96C41 149.019 84.4284 192 138 192Z" fill="#EDF5FF"/>
<path d="M138 197C213.111 197 274 192.971 274 188C274 183.029 213.111 179 138 179C62.8893 179 2 183.029 2 188C2 192.971 62.8893 197 138 197Z" fill="#C7DEFF"/>
<path d="M52.0829 33.1977L50 49.6066C52.5566 54.4811 55.2645 60.0226 57.847 66L62.7521 41.2571L63 41.4774C59.4138 37.9424 55.6415 35.0648 51.831 33L52.0829 33.1977Z" fill="#0073FF"/>
<path d="M49.8958 49L52 33.4309C47.53 31.1982 43.0142 29.9784 38.672 30.0003C38.446 30.0014 38.2229 30.0086 38 30.0164C38.8721 31.2362 43.9387 38.4275 49.8958 49Z" fill="#0073FF"/>
<path d="M82.7788 74.0943L83 74.3846C82.2655 72.2122 81.4559 70.084 80.5712 68L68.1065 95.1588L68 95.03C68.3154 96.3663 68.606 97.6896 68.8718 99L82.7788 74.0943Z" fill="#0073FF"/>
<path d="M72.7802 55.0592L73 55.318C70.0867 50.1339 66.5948 45.3277 62.5973 41L58 65.8196C60.202 71.3449 62.0995 76.7384 63.6926 82L72.7802 55.0592Z" fill="#0073FF"/>
<path d="M19.1774 55C18.8572 59.3228 18.9707 63.6672 19.5163 67.967L62 80C60.4609 75.4066 58.8044 71.0602 57.1562 67.0747L19.2287 55.3622L19.1774 55Z" fill="#0073FF"/>
<path d="M19.728 72.3858L19.6698 72.0417L63 83C62.648 81.9225 62.2876 80.8572 61.9188 79.8041L19.0557 68.3442L19 68C19.1922 69.4379 19.4349 70.8998 19.728 72.3858Z" fill="#0073FF"/>
<path d="M79.7788 66.7889L80 67.0679C78.4331 63.2586 76.6147 59.5609 74.5572 56L65 83.5715C66.0824 87.1206 67.0183 90.5968 67.8077 94L79.7788 66.7889Z" fill="#0073FF"/>
<path d="M70.6694 113.638C71.099 121.375 70.5426 128.522 69 135C72.2697 130.263 85.0029 110.496 85 90L70.6694 113.638Z" fill="#0073FF"/>
<path d="M26 89C27.7965 92.4472 29.8294 95.7739 32.0849 98.9578L32.044 98.5705L70 113C69.7097 108.712 69.1543 104.444 68.3367 100.22L26 89Z" fill="#0073FF"/>
<path d="M49 49C43.0557 37.6677 38.0892 30.2997 38.0177 30.1942L38.1549 30C32.0796 30.3126 27.2652 33.5238 24 38.8007L49 49Z" fill="#0073FF"/>
<path d="M69 100.11C69.0754 100.516 69.153 100.923 69.2238 101.326C69.9095 105.188 70.3883 109.085 70.6583 113L84.8007 89.5068L85 89.7956C84.9699 86.1749 84.4898 82.5726 83.5713 79.0749C83.2043 77.7022 82.8068 76.3439 82.3788 75L69 100.11Z" fill="#0073FF"/>
<path d="M57 66C54.5123 60.1586 51.9074 54.7449 49.4487 49.9817L23.5713 39.3521L23.5387 39C21.0933 43.0965 19.5396 48.377 19 54.4792L57 66Z" fill="#0073FF"/>
<path d="M70.8599 113.907L33 99C46.5847 118.871 67.4405 135.92 68.773 137C70.7502 129.625 71.2945 121.791 70.8599 113.907Z" fill="#0073FF"/>
<path d="M66.9873 99L67 98.976C66.0108 93.7487 64.7475 88.5797 63.2157 83.4916L21 72C21.3951 74.1042 21.8814 76.2462 22.4589 78.4262C23.3108 81.5372 24.4379 84.562 25.8261 87.4631L66.9873 99Z" fill="#0073FF"/>
<path d="M125.165 101.307L113.449 112.591C112.29 117.905 110.826 123.824 109 130L127.956 114.076L128 114.398C127.575 109.473 126.606 104.937 125.104 101L125.165 101.307Z" fill="#0073FF"/>
<path d="M113 111L125 100.518C123.185 96.3031 120.657 92.8215 117.424 90.3699C117.256 90.2423 117.086 90.1208 116.916 90C116.744 91.4107 115.676 99.6842 113 111Z" fill="#0073FF"/>
<path d="M121.73 151.838L121.711 152.185C122.56 150.135 123.323 148.074 124 146L96.9072 158.694L96.9095 158.535C96.2835 159.715 95.647 160.87 95 162L121.73 151.838Z" fill="#0073FF"/>
<path d="M127.016 132.978L127.027 133.331C127.976 127.274 128.232 121.12 127.79 115L108.639 131.403C106.917 137.246 105.037 142.778 103 148L127.016 132.978Z" fill="#0073FF"/>
<path d="M86.0582 98C83.0331 101.07 80.3334 104.43 78 108.03L103.491 144C105.236 139.55 106.73 135.212 108 131.154L85.8658 98.3066L86.0582 98Z" fill="#0073FF"/>
<path d="M76 111.992L76.1822 111.678L101.717 148C102.159 146.909 102.587 145.823 103 144.741L78.1478 108.312L78.3319 108C77.5323 109.279 76.755 110.61 76 111.992Z" fill="#0073FF"/>
<path d="M124.248 145.267L124.243 145.612C125.427 141.806 126.348 137.927 127 134L102.38 148.507C100.987 151.817 99.5268 154.981 98 158L124.248 145.267Z" fill="#0073FF"/>
<path d="M87.226 174.833C82.5337 180.985 77.441 186.061 72 190C77.6819 188.483 100.667 181.574 114 166L87.226 174.833Z" fill="#0073FF"/>
<path d="M69.8615 128C68.9791 131.792 68.3572 135.637 68 139.511L68.2226 139.185L87.8931 174C90.4835 170.493 92.8567 166.838 95 163.053L69.8615 128Z" fill="#0073FF"/>
<path d="M112.177 111C114.846 98.3922 115.764 89.4956 115.777 89.3679L116 89.3036C111.297 85.69 105.719 85.1364 100 87.1766L112.177 111Z" fill="#0073FF"/>
<path d="M95.0355 163.324C94.8327 163.674 94.6309 164.027 94.4261 164.373C92.4688 167.691 90.3236 170.904 88 174L114.525 165.366L114.497 165.708C116.821 162.984 118.774 159.989 120.309 156.797C120.906 155.54 121.47 154.274 122 153L95.0355 163.324Z" fill="#0073FF"/>
<path d="M107.558 131C109.38 124.92 110.841 119.095 112 113.865L99.0886 89.2923L99.2877 89C94.8255 90.6132 90.2885 93.7041 86 98.0705L107.558 131Z" fill="#0073FF"/>
<path d="M87 173.917L68.4926 139C66.4562 162.464 71.3714 188.353 71.691 190C77.5293 185.684 82.6037 180.126 87 173.917Z" fill="#0073FF"/>
<path d="M94.0951 162L94.1204 161.99C96.6701 157.396 98.9666 152.67 101 147.832L75.045 112C74.0162 113.847 73.0352 115.782 72.1018 117.804C70.7919 120.707 69.7536 123.722 69 126.811L94.0951 162Z" fill="#0073FF"/>
<path d="M25.28 102.11L28.268 118.028C31.9532 121.819 35.9678 126.188 40 131L37.0489 106.476L37.3321 106.608C33.1335 104.37 28.9641 102.8 25 102L25.28 102.11Z" fill="#0073FF"/>
<path d="M28 117L25.2431 102.521C21.0074 101.714 17.0245 101.824 13.5362 102.998C13.3547 103.059 13.1771 103.125 13 103.191C14.0506 104.05 20.1837 109.132 28 117Z" fill="#0073FF"/>
<path d="M66.6857 131.132L67 131.342C65.5578 129.497 64.056 127.716 62.4946 126L59.1477 155.577L59 155.486C59.7524 156.662 60.4761 157.834 61.171 159L66.6857 131.132Z" fill="#0073FF"/>
<path d="M52.6968 116.922L53 117.094C48.4299 113.169 43.3948 109.781 38 107L41.1674 131.671C45.1271 136.141 48.7381 140.584 52.0005 145L52.6968 116.922Z" fill="#0073FF"/>
<path d="M1 131.369C2.01193 135.72 3.43969 139.951 5.26153 144L49 142.139C46.1516 138.122 43.2675 134.385 40.5011 131L1.15846 131.709L1 131.369Z" fill="#0073FF"/>
<path d="M8.08374 149L7.91925 148.653L52 146.045C51.3259 145.014 50.6479 143.999 49.9659 143L6.16221 144.92L6 144.572C6.63965 146.039 7.33423 147.515 8.08374 149Z" fill="#0073FF"/>
<path d="M61.6803 125.565L62 125.76C59.1308 122.649 56.0395 119.723 52.7471 117L52 146.023C54.2847 149.039 56.3945 152.031 58.3293 155L61.6803 125.565Z" fill="#0073FF"/>
<path d="M67 173.075C70.0184 180.329 71.8193 187.329 72.3761 194C74.1871 188.449 80.8015 165.572 73.9813 146L67 173.075Z" fill="#0073FF"/>
<path d="M18 162.242C20.723 165.298 23.6267 168.148 26.6915 170.771L26.534 170.374L66 173C64.4059 168.548 62.5737 164.207 60.5133 160L18 162.242Z" fill="#0073FF"/>
<path d="M28 118C18.779 109.499 11.7353 104.289 11.634 104.215L11.7035 104C6.02 106.032 2.44796 110.313 1 116.01L28 118Z" fill="#0073FF"/>
<path d="M61 160.215C61.2093 160.578 61.4213 160.942 61.6251 161.304C63.5858 164.776 65.3464 168.346 66.8992 172L73.702 145.088L74 145.301C72.7885 141.853 71.1228 138.564 69.0428 135.514C68.2199 134.32 67.3704 133.148 66.4945 132L61 160.215Z" fill="#0073FF"/>
<path d="M41 130.372C36.8032 125.908 32.6284 121.857 28.7964 118.34L0.817353 116.303L0.676169 116C-0.372738 120.324 -0.20177 125.443 1.1923 131L41 130.372Z" fill="#0073FF"/>
<path d="M66.9535 173.331L27 171C45.7378 185.073 70.4254 194.412 72 195C71.6151 187.69 69.7501 180.388 66.9535 173.331Z" fill="#0073FF"/>
<path d="M60.995 160.016L61 159.99C58.4284 155.517 55.6086 151.181 52.5528 147L8 149.347C9.03214 151.148 10.1645 152.956 11.3972 154.771C13.1834 157.353 15.2103 159.773 17.4527 162L60.995 160.016Z" fill="#0073FF"/>
<path d="M204 51H173C169.134 51 166 54.134 166 58V89C166 92.866 169.134 96 173 96H204C207.866 96 211 92.866 211 89V58C211 54.134 207.866 51 204 51Z" fill="#0073FF"/>
<path d="M206 72.6311C206 78.9973 203.018 83.0094 198.3 83.0094C195.885 83.0094 194.046 81.7207 193.728 79.8049H193.384C192.534 81.7981 190.78 82.8892 188.426 82.8892C184.232 82.8892 181.43 79.5299 181.43 74.5298C181.43 69.7272 184.249 66.3852 188.366 66.3852C190.48 66.3852 192.276 67.4505 193.066 69.1945H193.41V66.8061H196.839V77.9148C196.839 79.298 197.604 80.1313 198.979 80.1313C201.359 80.1313 202.872 77.2446 202.872 72.76C202.872 65.6034 197.509 60.818 189.586 60.818C181.748 60.818 176.162 66.5312 176.162 74.6157C176.162 82.8806 181.688 88.1557 190.291 88.1557C191.858 88.1646 193.422 88.0323 194.966 87.7605C195.69 87.6211 196.394 88.0856 196.55 88.8067C196.707 89.5278 196.259 90.2419 195.541 90.4152C193.773 90.8126 191.966 91.0086 190.153 90.9997C179.695 90.9908 173 84.5301 173 74.504C173 64.7185 179.832 58 189.792 58C199.366 58 206 63.971 206 72.6311ZM185.134 74.6071C185.134 77.7859 186.63 79.7104 189.062 79.7104C191.623 79.7104 193.238 77.7343 193.238 74.6071C193.238 71.4798 191.623 69.5468 189.105 69.5468C186.604 69.5468 185.134 71.4197 185.134 74.6071Z" fill="white"/>
<g filter="url(#filter0_di_1640_56655)">
<path d="M259 110H149C145.686 110 143 112.686 143 116V177C143 180.314 145.686 183 149 183H259C262.314 183 265 180.314 265 177V116C265 112.686 262.314 110 259 110Z" fill="white"/>
</g>
<path opacity="0.3" d="M156 161H251V165H156V161Z" fill="#0073FF"/>
<path opacity="0.3" d="M156 152H251V156H156V152Z" fill="#0073FF"/>
<path opacity="0.3" d="M234 140H251V144H234V140Z" fill="#0073FF"/>
<path opacity="0.3" d="M189 130H252V134H189V130Z" fill="#0073FF"/>
<path opacity="0.3" d="M156 171H203V175H156V171Z" fill="#0073FF"/>
<path d="M179 132C179 126.477 174.523 122 169 122C163.477 122 159 126.477 159 132C159 137.523 163.477 142 169 142C174.523 142 179 137.523 179 132Z" fill="#0073FF"/>
</g>
</g>
<defs>
<filter id="filter0_di_1640_56655" x="141" y="108" width="126" height="77" filterUnits="userSpaceOnUse" color-interpolation-filters="sRGB">
<feFlood flood-opacity="0" result="BackgroundImageFix"/>
<feColorMatrix in="SourceAlpha" type="matrix" values="0 0 0 0 0 0 0 0 0 0 0 0 0 0 0 0 0 0 127 0" result="hardAlpha"/>
<feOffset/>
<feGaussianBlur stdDeviation="1"/>
<feComposite in2="hardAlpha" operator="out"/>
<feColorMatrix type="matrix" values="0 0 0 0 0.478431 0 0 0 0 0.505882 0 0 0 0 0.545098 0 0 0 0.2 0"/>
<feBlend mode="normal" in2="BackgroundImageFix" result="effect1_dropShadow_1640_56655"/>
<feBlend mode="normal" in="SourceGraphic" in2="effect1_dropShadow_1640_56655" result="shape"/>
<feColorMatrix in="SourceAlpha" type="matrix" values="0 0 0 0 0 0 0 0 0 0 0 0 0 0 0 0 0 0 127 0" result="hardAlpha"/>
<feOffset dy="2"/>
<feGaussianBlur stdDeviation="1.5"/>
<feComposite in2="hardAlpha" operator="arithmetic" k2="-1" k3="1"/>
<feColorMatrix type="matrix" values="0 0 0 0 0.478431 0 0 0 0 0.505882 0 0 0 0 0.545098 0 0 0 0.1 0"/>
<feBlend mode="normal" in2="shape" result="effect2_innerShadow_1640_56655"/>
</filter>
<clipPath id="clip0_1640_56655">
<rect width="274" height="197" fill="white"/>
</clipPath>
</defs>
</svg>
